<svg xmlns="http://www.w3.org/2000/svg" width="68.54" height="59.892" viewBox="0 0 68.54 59.892">
  <g id="_001-share" data-name="001-share" transform="translate(0 -0.075)">
    <path id="Combined_Shape" data-name="Combined Shape" d="M7.548,59.892A7.558,7.558,0,0,1,0,52.343V16.376A7.556,7.556,0,0,1,7.548,8.828H17.989a1.509,1.509,0,1,1,0,3.019H7.548a4.534,4.534,0,0,0-4.529,4.53V52.343a4.534,4.534,0,0,0,4.529,4.53H56.969a4.534,4.534,0,0,0,4.529-4.53v-6.38a1.51,1.51,0,0,1,3.02,0v6.38a7.558,7.558,0,0,1-7.548,7.549ZM30.035,37.949a1.517,1.517,0,0,1-1.211-1.226l-.32-1.844c0-.022-.007-.045-.01-.068l0-.009a23.407,23.407,0,0,1,.27-7.666,22.936,22.936,0,0,1,7.942-13.3c.73-.656,4.779-3.945,12.862-4.267V1.51A1.506,1.506,0,0,1,50.5.116a1.507,1.507,0,0,1,1.643.323L68.095,16.313a1.51,1.51,0,0,1,.005,2.135L52.146,34.484a1.51,1.51,0,0,1-2.579-1.065V25.075c-.248-.012-.508-.019-.77-.019a15.824,15.824,0,0,0-5.289.907c-4.306,1.509-7.986,4.764-10.94,9.675l-.961,1.6a1.512,1.512,0,0,1-1.571.708ZM41.747,14.272a11.409,11.409,0,0,0-3,1.786c-.026.026-.056.053-.093.084a19.642,19.642,0,0,0-6.926,11.581,21.546,21.546,0,0,0-.409,4.307A23.09,23.09,0,0,1,42.51,23.115,18.961,18.961,0,0,1,48.8,22.038a16.062,16.062,0,0,1,2.519.188,1.5,1.5,0,0,1,1.27,1.49V29.76L64.9,17.389,52.586,5.142V11.05a1.512,1.512,0,0,1-1.511,1.51h-.233A22.775,22.775,0,0,0,41.747,14.272Z" transform="translate(0 0.075)" fill="#f5b100"/>
  </g>
</svg>
