<svg xmlns="http://www.w3.org/2000/svg" width="19.625" height="14.994" viewBox="0 0 19.625 14.994">
  <g id="open-book" transform="translate(0 -0.003)">
    <path id="Combined_Shape" data-name="Combined Shape" d="M18.766,14.976a16.917,16.917,0,0,0-7.435-.144,7.79,7.79,0,0,1,5.292-1.806,1.8,1.8,0,0,0,1.791-1.793v-8.8h.509a.7.7,0,0,1,.7.7V14.292a.7.7,0,0,1-.7.7A.715.715,0,0,1,18.766,14.976ZM.264,14.84A.7.7,0,0,1,0,14.291V3.131a.7.7,0,0,1,.7-.7h.509v8.8A1.8,1.8,0,0,0,3,13.026a7.79,7.79,0,0,1,5.292,1.806,16.9,16.9,0,0,0-7.435.144.714.714,0,0,1-.158.018A.7.7,0,0,1,.264,14.84Zm10.094-11.6a.672.672,0,0,1,.1-.355C12.005.383,14.985,0,16.623,0h0a.69.69,0,0,1,.492.2.7.7,0,0,1,.207.5V11.233a.705.705,0,0,1-.7.7,8.689,8.689,0,0,0-6.262,2.322Zm-7.353,8.7a.705.705,0,0,1-.7-.7V.7A.7.7,0,0,1,2.508.2.691.691,0,0,1,3,0H3C4.64,0,7.62.383,9.171,2.881a.672.672,0,0,1,.1.355V14.257A8.689,8.689,0,0,0,3.005,11.935Z" transform="translate(0 0.003)" fill="#ccc"/>
  </g>
</svg>
