<svg xmlns="http://www.w3.org/2000/svg" width="65" height="60" viewBox="0 0 65 60">
  <g id="Group_11" data-name="Group 11" transform="translate(0 -0.253)">
    <g id="calendar" transform="translate(0 0.253)">
      <path id="Combined_Shape" data-name="Combined Shape" d="M7.813,60A7.806,7.806,0,0,1,0,52.217V12.848A7.8,7.8,0,0,1,7.813,5.066h4.768V1.556a1.562,1.562,0,0,1,3.125,0v3.51H49.294V1.556a1.562,1.562,0,0,1,3.125,0v3.51h4.769A7.8,7.8,0,0,1,65,12.848V52.217A7.806,7.806,0,0,1,57.188,60ZM3.125,12.848V52.217a4.694,4.694,0,0,0,4.688,4.67H57.188a4.692,4.692,0,0,0,4.687-4.67V12.848a4.69,4.69,0,0,0-4.687-4.669H52.419V12.4a1.562,1.562,0,0,1-3.125,0V8.179H15.706V12.4a1.562,1.562,0,0,1-3.125,0V8.179H7.813A4.692,4.692,0,0,0,3.125,12.848Zm33.189,35.33a1.557,1.557,0,1,1,0-3.113H39.7a1.557,1.557,0,1,1,0,3.113Zm-11.019,0a1.557,1.557,0,1,1,0-3.113h2.542a1.557,1.557,0,1,1,0,3.113Zm-11.866,0a1.557,1.557,0,1,1,0-3.113h2.542a1.557,1.557,0,1,1,0,3.113Zm34.752-12.4a1.557,1.557,0,1,1,0-3.113h3.39a1.557,1.557,0,1,1,0,3.113Zm-11.867,0a1.557,1.557,0,1,1,0-3.113H39.7a1.557,1.557,0,1,1,0,3.113Zm-11.019,0a1.557,1.557,0,1,1,0-3.113h2.542a1.557,1.557,0,1,1,0,3.113Zm-11.866,0a1.557,1.557,0,1,1,0-3.113h2.542a1.557,1.557,0,1,1,0,3.113ZM48.181,22.532a1.556,1.556,0,1,1,0-3.112h3.39a1.556,1.556,0,1,1,0,3.112Zm-11.867,0a1.556,1.556,0,1,1,0-3.112H39.7a1.556,1.556,0,1,1,0,3.112Zm-11.019,0a1.556,1.556,0,1,1,0-3.112h2.542a1.556,1.556,0,1,1,0,3.112Z" fill="#a942ff"/>
    </g>
  </g>
</svg>
