<svg id="_004-coins" data-name="004-coins" xmlns="http://www.w3.org/2000/svg" width="73.143" height="60" viewBox="0 0 73.143 60">
  <path id="Shape" d="M36.572,60C25.984,60,18,56.315,18,51.429v-.013A34.9,34.9,0,0,1,6.131,49.233C2.177,47.641,0,45.376,0,42.857V8.572C0,6.052,2.177,3.788,6.131,2.2A35.5,35.5,0,0,1,19,0,35.5,35.5,0,0,1,31.87,2.2a12.655,12.655,0,0,1,4.7,3.006,12.642,12.642,0,0,1,4.7-3.006A35.5,35.5,0,0,1,54.143,0,35.5,35.5,0,0,1,67.012,2.2c3.954,1.592,6.131,3.856,6.131,6.376V42.857c0,2.519-2.177,4.784-6.131,6.376a34.9,34.9,0,0,1-11.869,2.183v.013C55.143,56.315,47.159,60,36.572,60ZM20.858,47.567v3.862c0,1.257,1.548,2.652,4.142,3.731a31.084,31.084,0,0,0,11.572,1.983A31.084,31.084,0,0,0,48.144,55.16c2.593-1.08,4.142-2.475,4.142-3.731V47.567a12.71,12.71,0,0,1-1.077.7,25.037,25.037,0,0,1-8.729,2.746,1.508,1.508,0,0,1-.21.015A1.436,1.436,0,0,1,40.858,49.8a1.428,1.428,0,0,1,1.206-1.621c6.639-.975,10.221-3.471,10.221-5.325V38.983a19.1,19.1,0,0,1-6.529,2.825,38.378,38.378,0,0,1-9.185,1.05,38.378,38.378,0,0,1-9.185-1.05,19.1,19.1,0,0,1-6.529-2.825v3.875c0,1.854,3.582,4.351,10.221,5.325A1.429,1.429,0,0,1,32.285,49.8a1.436,1.436,0,0,1-1.411,1.221,1.508,1.508,0,0,1-.21-.015,25.037,25.037,0,0,1-8.729-2.746A12.574,12.574,0,0,1,20.858,47.567Zm49.428-8.654a15.574,15.574,0,0,1-3.273,1.749,34.9,34.9,0,0,1-11.869,2.183v5.713a32.06,32.06,0,0,0,10.8-1.976c2.677-1.078,4.341-2.506,4.341-3.725V38.912Zm-67.428,0v3.945c0,1.22,1.663,2.647,4.341,3.725A32.052,32.052,0,0,0,18,48.558V42.845A34.878,34.878,0,0,1,6.131,40.661,15.548,15.548,0,0,1,2.858,38.912ZM36.572,28.571c-8.394,0-14.5,2.548-15.563,5.012a1.757,1.757,0,0,0-.151.7c0,1.256,1.548,2.652,4.142,3.732A31.1,31.1,0,0,0,36.572,40a31.1,31.1,0,0,0,11.572-1.982c2.593-1.081,4.142-2.476,4.142-3.732a1.768,1.768,0,0,0-.152-.7C51.075,31.118,44.965,28.571,36.572,28.571Zm33.714,1.769a15.591,15.591,0,0,1-3.273,1.75,34.9,34.9,0,0,1-11.869,2.183v5.712a32.083,32.083,0,0,0,10.8-1.975c2.677-1.079,4.341-2.507,4.341-3.726V30.341Zm-67.428,0v3.945c0,1.219,1.663,2.647,4.341,3.726A32.082,32.082,0,0,0,18,39.986V34.274A34.905,34.905,0,0,1,6.131,32.09,15.591,15.591,0,0,1,2.858,30.341ZM38,21.769V25.74a34.488,34.488,0,0,1,10.107,1.741c2.85,1,4.949,2.369,6.07,3.947A33.06,33.06,0,0,0,65.945,29.44c2.677-1.078,4.341-2.506,4.341-3.726V21.769a15.618,15.618,0,0,1-3.273,1.75,35.5,35.5,0,0,1-12.869,2.2,35.5,35.5,0,0,1-12.87-2.2A15.618,15.618,0,0,1,38,21.769Zm-35.142,0v3.945c0,1.22,1.663,2.648,4.341,3.726a33.059,33.059,0,0,0,11.768,1.988c1.121-1.578,3.22-2.943,6.07-3.947A34.512,34.512,0,0,1,35.143,25.74V21.769a15.618,15.618,0,0,1-3.273,1.75A35.5,35.5,0,0,1,19,25.714a35.5,35.5,0,0,1-12.869-2.2A15.591,15.591,0,0,1,2.858,21.769ZM38,13.2v3.946c0,1.22,1.663,2.647,4.341,3.725a33.089,33.089,0,0,0,11.8,1.989,33.087,33.087,0,0,0,11.8-1.989c2.677-1.078,4.341-2.506,4.341-3.725V13.2a15.572,15.572,0,0,1-3.273,1.75,35.5,35.5,0,0,1-12.869,2.2,35.5,35.5,0,0,1-12.87-2.2A15.572,15.572,0,0,1,38,13.2Zm-35.142,0v3.946c0,1.22,1.663,2.647,4.341,3.725A33.079,33.079,0,0,0,19,22.857a33.089,33.089,0,0,0,11.8-1.989c2.677-1.078,4.341-2.506,4.341-3.725V13.2a15.572,15.572,0,0,1-3.273,1.75A35.5,35.5,0,0,1,19,17.143a35.5,35.5,0,0,1-12.869-2.2A15.545,15.545,0,0,1,2.858,13.2ZM54.143,2.858a33.092,33.092,0,0,0-11.8,1.988C39.663,5.925,38,7.352,38,8.572s1.663,2.647,4.341,3.725a33.072,33.072,0,0,0,11.8,1.989,33.069,33.069,0,0,0,11.8-1.989c2.677-1.078,4.341-2.506,4.341-3.725s-1.663-2.647-4.341-3.726A33.089,33.089,0,0,0,54.143,2.858ZM19,2.858A33.081,33.081,0,0,0,7.2,4.846C4.521,5.925,2.858,7.352,2.858,8.572S4.521,11.219,7.2,12.3A33.062,33.062,0,0,0,19,14.286,33.072,33.072,0,0,0,30.8,12.3c2.677-1.078,4.341-2.506,4.341-3.725S33.48,5.925,30.8,4.846A33.092,33.092,0,0,0,19,2.858Z" fill="#00ba78"/>
</svg>
