<svg id="Logo_1" xmlns="http://www.w3.org/2000/svg" xmlns:xlink="http://www.w3.org/1999/xlink" width="140" height="45" viewBox="0 0 140 45">
  <defs>
    <clipPath id="clip-path">
      <path id="Clip_2" data-name="Clip 2" d="M0,0V6.7A14.316,14.316,0,0,1,14.3,21h0a14.216,14.216,0,0,1-2.017,7.315h0L13.8,34.378a.677.677,0,0,1-.832.819h0L6.832,33.559A14.215,14.215,0,0,1,0,35.3H0V42a20.863,20.863,0,0,0,14.849-6.151h0A20.862,20.862,0,0,0,21,21h0A20.86,20.86,0,0,0,14.849,6.151h0A20.863,20.863,0,0,0,0,0Z" transform="translate(0 0)" fill="none"/>
    </clipPath>
    <radialGradient id="radial-gradient" cx="0.586" cy="0.78" r="1.051" gradientUnits="objectBoundingBox">
      <stop offset="0" stop-color="#00ba78"/>
      <stop offset="1" stop-color="#06f"/>
    </radialGradient>
  </defs>
  <g id="Group_16" data-name="Group 16" transform="translate(6 8)">
    <path id="Combined_Shape" data-name="Combined Shape" d="M42.777,21.841a11.875,11.875,0,0,1-.66-4.687V6.806h3.368v9.2c0,2.64.1,3.161.347,3.924a2.781,2.781,0,0,0,2.882,1.979c2.848,0,4.514-1.77,4.514-6.146V6.806H56.6V24.515H53.715a8.76,8.76,0,0,1-.347-2.743,5.741,5.741,0,0,1-5.59,3.195A5.289,5.289,0,0,1,42.777,21.841Zm30.867-6.18c0-5.719,3.034-9.272,7.917-9.272s7.917,3.553,7.917,9.272-3.034,9.271-7.917,9.271S73.644,21.38,73.644,15.661Zm4.5-4.645a8.778,8.778,0,0,0-1.024,4.645A8.775,8.775,0,0,0,78.141,20.3a4.177,4.177,0,0,0,6.841,0,8.775,8.775,0,0,0,1.024-4.644,8.778,8.778,0,0,0-1.024-4.645,4.177,4.177,0,0,0-6.841,0ZM20.417,22.432a2.5,2.5,0,1,1,2.5,2.5A2.49,2.49,0,0,1,20.417,22.432Zm42.36-3.75V9.48H60.346V6.806h2.431V2.535a10.727,10.727,0,0,1,3.368-.868V6.806H70.52V9.48H66.145v9.063c0,2.708.348,3.4,2.431,3.4a7.481,7.481,0,0,0,2.5-.521v2.952a10.6,10.6,0,0,1-2.986.417C64.2,24.793,62.777,22.571,62.777,18.681Zm-32.431,0V9.48h-2.43V6.806h2.43V2.535a10.735,10.735,0,0,1,3.369-.868V6.806H38.09V9.48H33.715v9.063c0,2.708.347,3.4,2.431,3.4a7.475,7.475,0,0,0,2.5-.521v2.952a10.594,10.594,0,0,1-2.986.417C31.77,24.793,30.346,22.571,30.346,18.681ZM0,24.446V.486A50.4,50.4,0,0,1,6.737,0c5.819,0,8.646,2.124,8.646,6.494a5.41,5.41,0,0,1-3.889,5.035A6.044,6.044,0,0,1,16.6,17.6a6.291,6.291,0,0,1-2.136,5.261c-1.614,1.3-4.187,1.927-7.865,1.927A47.577,47.577,0,0,1,0,24.446ZM3.472,21.6a40.909,40.909,0,0,0,4.167.14c3.6,0,5.348-1.374,5.348-4.2a3.481,3.481,0,0,0-1.207-2.886,7.114,7.114,0,0,0-4.488-1.142H3.472Zm0-18.265v7.258H6.32c4.505,0,5.451-2.191,5.451-4.028a2.991,2.991,0,0,0-1.05-2.587A6.9,6.9,0,0,0,6.6,3.056,18.98,18.98,0,0,0,3.472,3.334ZM93.921,24.515V6.806H96.8A6.11,6.11,0,0,1,97.116,9.1a5.769,5.769,0,0,1,4.653-2.639,5.173,5.173,0,0,1,1.25.14V9.9a5.2,5.2,0,0,0-1.7-.312c-3.02,0-4.028,1.562-4.028,4.444V24.515Z" transform="translate(0 0)" fill='currentColor'/>
  </g>
  <g id="Group_3" data-name="Group 3" transform="translate(111 1)">
    <path id="Clip_2-2" data-name="Clip 2" d="M0,0V6.7A14.316,14.316,0,0,1,14.3,21h0a14.216,14.216,0,0,1-2.017,7.315h0L13.8,34.378a.677.677,0,0,1-.832.819h0L6.832,33.559A14.215,14.215,0,0,1,0,35.3H0V42a20.863,20.863,0,0,0,14.849-6.151h0A20.862,20.862,0,0,0,21,21h0A20.86,20.86,0,0,0,14.849,6.151h0A20.863,20.863,0,0,0,0,0Z" transform="translate(0 0)" fill="none"/>
    <g id="Group_3-2" data-name="Group 3" clip-path="url(#clip-path)">
      <path id="Fill_1" data-name="Fill 1" d="M0,0V6.7A14.316,14.316,0,0,1,14.3,21h0a14.216,14.216,0,0,1-2.017,7.315h0L13.8,34.378a.677.677,0,0,1-.832.819h0L6.832,33.559A14.215,14.215,0,0,1,0,35.3H0V42a20.863,20.863,0,0,0,14.849-6.151h0A20.862,20.862,0,0,0,21,21h0A20.86,20.86,0,0,0,14.849,6.151h0A20.863,20.863,0,0,0,0,0Z" transform="translate(0 0)" fill="url(#radial-gradient)"/>
    </g>
  </g>
</svg>
